<svg xmlns="http://www.w3.org/2000/svg" xmlns:xlink="http://www.w3.org/1999/xlink" version="1.1" x="0px" y="0px" width="100px" height="100px" viewBox="0 0 100 100" enable-background="new 0 0 100 100" xml:space="preserve">
<g id="Captions">
</g>
<g id="Your_Icon">
	<g>
		<g id="XMLID_2_">
			<g>
				<g id="XMLID_3_">
					<g>
						<path fill="#000000" d="M42.966,51.018h0.606c-0.168-0.14-0.33-0.268-0.476-0.422c-4.806-4.341-8.473-12.778-8.473-19.599        c0-9.65,7.9-15.998,15.371-15.998c7.465,0,14.968,6.867,14.968,16.513c0,6.818-4.056,14.999-9.074,19.191        c1.031,3.933,6.678,5.22,18.324,8.414c12.939,3.552,11.579,15.705,10.673,18.245c-1.497,4.195-68.574,4.971-69.839,0        c-0.281-2.057-3.246-14.693,9.695-18.245C36.067,56.008,41.709,54.703,42.966,51.018z"/>
						<path fill="#000000" d="M43.572,51.018h-0.606c0.05-0.14,0.088-0.275,0.129-0.422C43.24,50.75,43.405,50.879,43.572,51.018z"/>
					</g>
				</g>
			</g>
		</g>
		<path fill="#000000" d="M24.331,57.623l2.164-0.592c4.106-1.121,7.357-2.015,9.796-2.903c-1.913-0.847-3.007-1.78-3.362-3.132    c1.643-1.373,3.129-3.331,4.302-5.512c-2.513-4.452-4.157-9.818-4.157-14.486c0-1.709,0.289-3.44,0.814-5.118    c-1.656-1.024-3.512-1.602-5.369-1.602c-5.591,0-11.503,4.75-11.503,11.972c0,5.104,2.744,11.418,6.34,14.667    c0.109,0.115,0.231,0.211,0.356,0.316h-0.454c-0.94,2.758-5.162,3.734-13.638,6.061c-9.684,2.658-7.465,12.114-7.255,13.653    c0.272,1.069,4.622,1.781,10.697,2.181C12.811,63.074,18.851,59.126,24.331,57.623z"/>
		<path fill="#000000" d="M75.385,57.623l-2.164-0.592c-4.106-1.121-7.357-2.015-9.796-2.903c1.913-0.847,3.007-1.78,3.362-3.132    c-1.643-1.373-3.129-3.331-4.302-5.512c2.513-4.452,4.157-9.818,4.157-14.486c0-1.709-0.289-3.44-0.814-5.118    c1.656-1.024,3.512-1.602,5.369-1.602c5.591,0,11.503,4.75,11.503,11.972c0,5.104-2.744,11.418-6.34,14.667    c-0.109,0.115-0.231,0.211-0.356,0.316h0.454c0.94,2.758,5.162,3.734,13.638,6.061c9.684,2.658,7.465,12.114,7.255,13.653    c-0.272,1.069-4.622,1.781-10.697,2.181C86.905,63.074,80.864,59.126,75.385,57.623z"/>
	</g>
</g>
</svg>