<?xml version="1.0" encoding="utf-8"?>
<!-- Generator: Adobe Illustrator 15.0.2, SVG Export Plug-In . SVG Version: 6.00 Build 0)  -->
<!DOCTYPE svg PUBLIC "-//W3C//DTD SVG 1.1//EN" "http://www.w3.org/Graphics/SVG/1.1/DTD/svg11.dtd">
<svg version="1.1" id="Layer_1" xmlns="http://www.w3.org/2000/svg" xmlns:xlink="http://www.w3.org/1999/xlink" x="0px" y="0px"
	 width="200.5px" height="200.5px" viewBox="0 0 200.5 200.5" enable-background="new 0 0 200.5 200.5" xml:space="preserve">
<path d="M195.458,172.497c-8.626-22.731-23.217-28.05-34.972-30.145c-9.808-1.76-22.031-5.409-26.36-7.791
	c-0.142-1.971-0.215-5.968,0.178-12.499c0.238-0.27,0.48-0.501,0.719-0.783l-0.123-0.113c5.795-7.774,8.565-15.077,9.815-20.012
	c3.742-2.641,7.675-7.784,9.987-17.734c1.341-5.769,2.341-13.051-1.797-18.268c-0.104-0.124-0.202-0.244-0.299-0.368
	c3.705-36.541-19.717-55-33.471-59.804l-0.202-0.066l-0.185-0.058C113.566,3.295,108.568,2.5,103.926,2.5
	c-1.093,0-2.117,0.047-3.109,0.124C99.808,2.542,98.768,2.5,97.729,2.5c-4.655,0-9.646,0.793-14.829,2.354l-0.19,0.062l-0.189,0.062
	C68.759,9.781,45.343,28.244,49.049,64.782c-0.108,0.124-0.205,0.244-0.298,0.367c-4.146,5.218-3.136,12.502-1.797,18.269
	c2.314,9.95,6.236,15.094,9.989,17.734c1.235,4.896,3.997,12.103,9.685,19.813v0.004c0.006,0.007,0.061,0.076,0.067,0.088
	c0.325,0.444,0.555,0.864,0.902,1.305c0.368,6.256,0.297,10.157,0.128,12.216c-4.35,2.363-16.54,6.019-26.332,7.772
	c-11.752,2.097-26.347,7.415-34.971,30.141c-1.458,3.867-0.944,8.058,1.434,11.497c8.848,12.818,55.506,15.512,93.084,15.512
	s84.236-2.693,93.086-15.514C196.402,180.547,196.916,176.356,195.458,172.497z M65.037,94.387c-1.152,0-6.038-0.761-8.904-13.11
	c-2.234-9.598,0.103-11.119,1.818-11.119c0.794,0,1.452,0.325,1.452,0.325c-8.507-44.493,26.221-56.6,26.221-56.6
	c4.776-1.438,8.788-1.954,12.107-1.954c1.107,0,2.14,0.053,3.087,0.164c0.963-0.111,1.998-0.164,3.111-0.164
	c3.313,0,7.322,0.516,12.107,1.954c0,0,34.717,12.107,26.21,56.6c0,0,0.663-0.325,1.458-0.325c1.716,0,4.054,1.52,1.812,11.119
	c-2.867,12.352-7.759,13.11-8.909,13.11c-0.158,0-0.246-0.015-0.246-0.015s-0.618,11.58-11.272,24.065
	c0,0.097-0.015,0.206-0.015,0.3c-8.292,8.438-16.749,12.528-25.234,12.209c-10.547-0.438-18.881-7.634-23.021-11.993
	c-0.006-0.065-0.014-0.161-0.014-0.227c-10.872-12.598-11.517-24.354-11.517-24.354S65.2,94.387,65.037,94.387z M76.413,139.191
	c0.598-1.573,0.814-4.505,0.855-7.803c5.607,4.206,13.105,8.184,22.125,8.576c0.494,0.029,0.991,0.043,1.485,0.043
	c8.142,0,16.077-3.021,23.725-8.857c0.034,3.394,0.254,6.43,0.863,8.041c0.912,2.443,6.272,4.966,12.651,7.115
	c-9.252,9.064-22.453,14.782-37.178,14.782c-14.723,0-27.915-5.729-37.165-14.782C70.142,144.147,75.504,141.635,76.413,139.191z"/>
</svg>
