<svg xmlns="http://www.w3.org/2000/svg" xmlns:xlink="http://www.w3.org/1999/xlink" xmlns:sketch="http://www.bohemiancoding.com/sketch/ns" width="100px" height="95px" viewBox="0 0 100 95" version="1.1">
    <title>Slice 1</title>
    <description>Created with Sketch (http://www.bohemiancoding.com/sketch)</description>
    <defs/>
    <g id="Page 1" stroke="none" stroke-width="1" fill="none" fill-rule="evenodd">
        <g id="Home Shape" fill="#000000">
            <path d="M23.4375,87.18107 L37.3046875,87.18107 L37.3046875,59.6193416 L62.6953125,59.6193416 L62.6953125,87.18107 L76.171875,87.18107 L76.171875,45.6215966 L49.9591371,19.4088587 L23.4375,45.9304959 Z M83.984375,53.4340966 L83.984375,87.18107 L83.984375,95 L76.171875,95 L23.4375,95 L15.625,95 L15.625,87.18107 L15.625,53.7429959 L9.69459644,59.6733994 L0.01916413,49.9979671 L49.8757165,0.141414776 L49.9668827,0.232581044 L50.0503034,0.149160378 L67.3828125,17.4816695 L67.3828125,7.23251029 L66.40625,7.23251029 L66.40625,3.32304527 L81.0546875,3.32304527 L81.0546875,7.23251029 L80.078125,7.23251029 L80.078125,30.1028807 L80.0040237,30.1028807 L99.8476365,49.9464934 L90.1722042,59.6219258 Z M83.984375,53.4340966" id="Home"/>
        </g>
    </g>
</svg>