<?xml version="1.0" encoding="utf-8"?>
<!-- Generator: Adobe Illustrator 15.0.2, SVG Export Plug-In . SVG Version: 6.00 Build 0)  -->
<!DOCTYPE svg PUBLIC "-//W3C//DTD SVG 1.1//EN" "http://www.w3.org/Graphics/SVG/1.1/DTD/svg11.dtd">
<svg version="1.1" id="Layer_1" xmlns="http://www.w3.org/2000/svg" xmlns:xlink="http://www.w3.org/1999/xlink" x="0px" y="0px"
	 width="50.4px" height="50.4px" viewBox="0 0 50.4 50.4" enable-background="new 0 0 50.4 50.4" xml:space="preserve">
<g id="Layer_1_1_">
</g>
<g id="Layer_2">
	<path d="M6.128,33.942V45.4h38.006V33.942H6.128z M25.131,41.999c-1.287,0-2.329-1.042-2.329-2.328
		c0-1.285,1.042-2.327,2.329-2.327c1.286,0,2.328,1.042,2.328,2.327C27.459,40.957,26.417,41.999,25.131,41.999z"/>
	<circle cx="25.133" cy="21.667" r="3.136"/>
	<path d="M50.108,5.055c0.414-0.451,0.383-1.15-0.068-1.563c-0.449-0.413-1.146-0.381-1.561,0.068L36.466,14.118
		c-2.862-2.973-6.88-4.83-11.333-4.83c-0.521,0-1.033,0.031-1.543,0.08c-0.312-0.919-0.814-1.893-1.624-2.672
		c-1.113-1.077-2.598-1.57-4.384-1.491c-3.839,0.188-6.462,3.762-7.513,5.494L1.945,3.56C1.533,3.111,0.833,3.079,0.383,3.492
		c-0.448,0.413-0.479,1.112-0.065,1.563l11.158,12.157c-1.327,2.309-2.1,4.978-2.1,7.831c0,2.459,0.581,4.779,1.587,6.854H39.3
		c0.429-0.881,0.761-1.814,1.021-2.775c2.655-1.086,9.73-4.323,9.028-7.763c-0.117-0.57-0.466-1.024-1.006-1.314
		c-1.618-0.865-5.144-0.106-8.047,0.774c-0.347-1.232-0.829-2.409-1.442-3.501L50.108,5.055z M11.097,11.602
		c0.842-1.428,3.223-4.897,6.547-5.06c1.413-0.064,2.547,0.31,3.384,1.113c0.568,0.545,0.937,1.234,1.192,1.914
		c-3.241,0.607-6.137,2.201-8.354,4.468L11.097,11.602z M25.129,28.215c-3.613,0-6.546-2.932-6.546-6.548
		c0-3.615,2.933-6.548,6.546-6.548c3.616,0,6.548,2.933,6.548,6.548C31.677,25.283,28.745,28.215,25.129,28.215z M47.712,21.229
		c0.238,0.126,0.296,0.271,0.322,0.397c0.354,1.735-3.713,4.271-7.369,5.891c0.131-0.81,0.224-1.63,0.224-2.476
		c0-0.996-0.124-1.961-0.305-2.903C43.524,21.24,46.574,20.622,47.712,21.229z"/>
</g>
</svg>
