<svg xmlns="http://www.w3.org/2000/svg" viewBox="0 0 198.36 172.84"><defs><style>.cls-1{fill:#000d74;}.cls-2{fill:none;stroke:#000d74;stroke-miterlimit:10;stroke-width:5px;}</style></defs><g id="Layer_4" data-name="Layer 4"><path class="cls-1" d="M197.79,71.37a26.1,26.1,0,0,0-24.07-21.7c-21.59-1.74-40.23,9.81-61.18,13.51-1.68.3-3.93-3.27-6-5.31,9.71-7.32,8.39-21.68-2.86-27.88-.77-.88-.49-9.15,0-9.53.92-.76,8.1.62,9.12-.27s.81-9.48.16-10.31-8.74.06-9.2-.5.23-8.3-.54-8.91c-.54-.43-2.78-.48-4-.47s-3.5,0-4,.47c-.76.62-.08,8.35-.53,8.91s-8.55-.33-9.2.5-.85,9.43.17,10.31,8.19-.48,9.1.28c.44.37.73,8.64,0,9.53-11.26,6.2-12.57,20.55-2.86,27.88-2,2-4.29,5.6-6,5.31-20.94-3.7-39.58-15.26-61.17-13.52A26.09,26.09,0,0,0,.58,71.38c-3.79,22,12,38.93,19.7,57.61,2.43,5.89,4.56,13.82,4.18,20.64H173.9c-.38-6.82,1.75-14.75,4.18-20.64,7.68-18.68,23.49-35.6,19.71-57.62M90.25,120.11c-2,11-8.09,18.07-13.19,18.11-3.35,0-17,0-17,0h0s-8.22.9-13.77-.65c-10.35-2.9-23.19-25.36-30.8-40.9-5.6-11.44-9-30.14,5.72-35.74,9-3.42,18.35-1.49,28,1.37,10.09,3,23.41,7.06,31.26,11.94,1.93,1.19-2.29.24,4.67,15.67,3.24,7.18,6.49,22.49,5.14,30.2m31.05,18.11c-5.11,0-11.24-7.06-13.18-18.11-1.36-7.71,1.89-23,5.13-30.2,7-15.43,2.74-14.48,4.67-15.67,7.85-4.88,21.17-8.94,31.27-11.94,9.64-2.86,19-4.8,28-1.37,14.69,5.6,11.31,24.3,5.71,35.74-7.61,15.54-20.45,38-30.8,40.9m0,0"/><polygon class="cls-1" points="175.59 172.84 175.59 159.86 100.03 159.86 98.33 159.86 22.78 159.86 22.78 172.84 98.33 172.84 100.03 172.84 175.59 172.84"/><circle class="cls-2" cx="58.39" cy="94.79" r="7.77"/><circle class="cls-2" cx="39.96" cy="107.83" r="7.77"/><circle class="cls-2" cx="76.57" cy="114.54" r="7.77"/><rect class="cls-1" x="55.56" y="104.56" width="5.65" height="34.28"/><rect class="cls-1" x="73.74" y="121.75" width="5.65" height="8.2"/><rect class="cls-1" x="65.98" y="133.5" width="5.65" height="11.69"/><rect class="cls-1" x="44.9" y="126.79" width="5.65" height="15.05"/><rect class="cls-1" x="41.02" y="118.69" width="5.65" height="12.68" transform="translate(-81.09 80.94) rotate(-51.24)"/><rect class="cls-1" x="37.14" y="115.04" width="5.65" height="8.2"/><rect class="cls-1" x="69.86" y="125.4" width="5.65" height="12.68" transform="translate(129.9 -7.42) rotate(51.24)"/><rect class="cls-1" x="132.77" y="120.02" width="11.31" height="26.63"/><path class="cls-1" d="M132.77,106.7h10.71a.6.6,0,0,1,.6.6v25.43a.6.6,0,0,1-.6.6H132.77a0,0,0,0,1,0,0V106.7A0,0,0,0,1,132.77,106.7Z" transform="translate(258.44 -18.4) rotate(90)"/><rect class="cls-1" x="124.67" y="103.4" width="5.65" height="17.17" rx="0.6" transform="translate(-41.84 122.95) rotate(-45)"/><rect class="cls-1" x="123.89" y="97.18" width="5.65" height="14.88" rx="0.6" transform="translate(111.09 -58.96) rotate(45)"/><rect class="cls-1" x="140.94" y="108.99" width="17.17" height="5.65" rx="2.03" transform="translate(-35.27 138.48) rotate(-45)"/><rect class="cls-1" x="147.47" y="97.02" width="5.65" height="14.88" rx="2.01" transform="translate(-29.84 136.87) rotate(-45)"/></g></svg>